<?xml version="1.0"?><svg width="600" height="463.99999999999994" xmlns="http://www.w3.org/2000/svg">
 <!-- Created with SVG-edit - http://svg-edit.googlecode.com/ -->
 <title>Blank Hand</title>

 <g>
  <title>Layer 1</title>
  <path id="svg_8" d="m122,226.5c0,0 -24.5,0.5 -27,-1.5c-2.5,-2 -80.5,6.5 -81.5,3.5c-1,-3 -19.5,-16 13,-31.5c32.5,-15.5 108.5,-22 122.5,-25c14,-3 52.5,-17.5 52.5,-17.5c0,0 31,-26 31,-26c0,0 0.5,-8 0.5,-8c0,0 1,8 -62,11.5c-63,3.5 -59,-35 -59,-37c0,-2 38.5,-6.5 38.5,-6.5c0,0 36.5,-10.5 55.5,-6.5c19,4 33,-17.5 92.5,6c59.5,23.5 92,16 126,-2c34,-18 83,-30.5 91.5,-42" stroke-width="5" stroke="#000000" fill="none"/>
  <path id="svg_9" d="m516,44.5c21.333313,-12.666666 42.666687,-25.333334 64,-38l-64,38z" stroke-width="5" stroke="#000000" fill="none"/>
  <path id="svg_10" d="m599,157l-214,84.5c0,0 -59,44 -74.5,48c-15.5,4 -26,14.5 -38,25.5c-12,11 -53,39.5 -53.5,39" stroke-width="5" stroke="#000000" fill="none"/>
  <path id="svg_11" d="m220,351.5c0,6.5 -50,25.5 -56.5,22.5c-6.5,-3 -9.5,-21 18,-35c27.5,-14 59.5,-44.5 57.5,-48.5c-2,-4 -28.5,2 -28.5,2c0,0 -65.5,27 -88.5,25.5c-23,-1.5 -59,14.5 -72.5,7c-13.5,-7.5 -19.5,-16.5 5,-30c24.5,-13.5 122,-31.5 118,-29c-4,2.5 -122.5,9.5 -124.5,12" stroke-width="5" stroke="#000000" fill="none"/>
  <path id="svg_13" d="m63.785736,275.428528l-56.785736,8.571472c0,0 -21.5,-19.5 10.5,-33.5c32,-14 148.5,-29.5 149,-31.5" stroke-width="5" stroke="#000000" fill="none"/>
 </g>
</svg>